<svg width="32" height="32" viewBox="0 0 32 32" fill="none" xmlns="http://www.w3.org/2000/svg">
<g clip-path="url(#clip0)">
<path d="M23.7353 27.1765H3.91176C2.85294 27.1765 2 26.3235 2 25.2647V1.91176C2 0.852941 2.85294 0 3.91176 0H23.7059C24.7647 0 25.6176 0.852941 25.6176 1.91176V25.2353C25.6471 26.2941 24.7941 27.1765 23.7353 27.1765Z" fill="#B2BFDD"/>
<path d="M26.6767 30.147H6.88259C5.82377 30.147 4.97083 29.294 4.97083 28.2352V4.88228C4.97083 3.82346 5.82377 2.97052 6.88259 2.97052H26.6767C27.7355 2.97052 28.5885 3.82346 28.5885 4.88228V28.2058C28.6179 29.2646 27.7355 30.147 26.6767 30.147Z" fill="#B2BFDD"/>
<path d="M6.88259 2.97052C5.82377 2.97052 4.97083 3.82346 4.97083 4.88228V27.1764H23.7355C24.7944 27.1764 25.6473 26.3235 25.6473 25.2646V2.97052H6.88259Z" fill="#8399C8"/>
<path d="M28.7057 32H9.8528C8.79398 32 7.94104 31.147 7.94104 30.0882V7.85293C7.94104 6.7941 8.79398 5.94116 9.8528 5.94116H28.7057C29.7646 5.94116 30.6175 6.7941 30.6175 7.85293V30.0882C30.6175 31.147 29.7646 32 28.7057 32Z" fill="#3D5FAA"/>
<path d="M20.8529 19.1471L27.7058 12.2941H23.3529L18.0294 17.5588V12.2941H14.3529V26.7647H18.0294V21L23.8529 26.7647H28.5L20.8529 19.1471Z" fill="white"/>
</g>
<defs>
<clipPath id="clip0">
<rect width="28.6176" height="32" fill="white" transform="translate(2)"/>
</clipPath>
</defs>
</svg>
